<svg xmlns="http://www.w3.org/2000/svg" xmlns:xlink="http://www.w3.org/1999/xlink" viewBox="0 0 512.002 511.997"><defs><path id="a" d="M0 0h512.002v511.997H0z"/></defs><clipPath id="b"><use overflow="visible" xlink:href="#a"/></clipPath><path fill="#369" d="M125.879 343.448l-18.62 18.62c-7.81 7.811-7.81 20.471 0 28.279l14.14 14.141c7.81 7.811 20.47 7.811 28.28 0l18.62-18.62-42.42-42.42zM447.036 51.861c-7.811 7.81-7.811 20.47 0 28.28l13.5 13.5 7.069 7.07c7.787 7.807 20.48 7.82 28.28 0 7.811-7.81 7.811-20.469 0-28.28l-20.57-20.57c-7.829-7.811-20.443-7.816-28.279 0M298.177 298.429c130.275-130.299 73.617-73.617 121.419-121.418l-28.29-28.29-20.57-20.57-121.419 121.418 48.86 48.86zM168.784 381.446c20.407 6.591 44.069 2.297 60.973-14.607 1.085-1.085-6.337 6.334 68.419-68.41l-46.36-46.359-68.409 68.418c-16.661 16.662-21.281 40.339-14.623 60.958" clip-path="url(#b)"/><path d="M192.358 305.499c3.91-3.909 3.91-10.239 0-14.14-3.9-3.91-10.24-3.91-14.14 0-3.91 3.9-3.91 10.23 0 14.14 3.9 3.9 10.24 3.9 14.14 0" clip-path="url(#b)"/><path d="M2.929 509.069c3.906 3.903 10.237 3.903 14.143 0l97.508-97.509c11.695 11.693 30.725 11.694 42.421-.002l18.25-18.25c22.74 4.061 45.848-3.418 61.829-19.398l182.768-182.759 7.069 7.069c3.906 3.905 10.237 3.905 14.142 0 3.905-3.905 3.906-10.237 0-14.143l-35.358-35.359 48.017-48.008 7.06 7.06c11.722 11.752 30.744 11.728 42.433.01 11.723-11.723 11.726-30.696 0-42.423L446.628 8.782c-11.58-11.554-30.508-11.868-42.412.008-11.724 11.724-11.725 30.696 0 42.422l7.07 7.07-48.01 48.016-35.357-35.359c-3.906-3.903-10.237-3.904-14.143 0-3.904 3.905-3.905 10.237 0 14.143l7.069 7.069-182.756 182.767c-16.86 16.859-23.314 40.034-19.403 61.833l-18.247 18.247c-11.695 11.697-11.695 30.724-.001 42.421l-97.51 97.507c-3.904 3.905-3.904 10.237.001 14.143m380.35-309.637l-21.223-21.215c-3.905-3.904-10.237-3.903-14.142.002-3.905 3.906-3.903 10.238.002 14.143l21.219 21.212-14.146 14.146-7.072-7.072c-3.906-3.903-10.237-3.904-14.143 0-3.904 3.905-3.905 10.237 0 14.143l7.071 7.072L326.708 256l-21.211-21.211c-3.905-3.904-10.237-3.904-14.143 0-3.904 3.905-3.904 10.237 0 14.143l21.21 21.209-14.143 14.144-70.713-70.713 107.277-107.278 70.717 70.715-22.423 22.423zm35.069-176.491a9.986 9.986 0 0114.147-.009l56.569 56.569a9.99 9.99 0 01-.009 14.147c-3.835 3.844-10.174 3.955-14.128-.01l-56.57-56.57c-3.919-3.919-3.893-10.242-.009-14.127m7.078 49.482l14.147 14.147-48.018 48.008-14.139-14.139 48.01-48.016zM152.231 289.059l61.339-61.347 70.713 70.712-14.144 14.145-7.07-7.07c-3.904-3.904-10.236-3.904-14.142 0-3.905 3.905-3.905 10.237 0 14.143l7.069 7.069-14.14 14.139-21.219-21.213c-3.905-3.902-10.237-3.902-14.142.002-3.905 3.906-3.903 10.238.002 14.144l21.216 21.21-4.778 4.775c-19.669 19.672-51.933 19.584-71.445-.768-18.511-19.31-18.831-50.37.741-69.941m-37.651 80.08l11.437-11.437a70.101 70.101 0 0011.213 15.295 70.198 70.198 0 0017.065 12.982l-11.436 11.437c-3.898 3.898-10.241 3.898-14.138 0l-14.14-14.14c-3.899-3.897-3.899-10.239-.001-14.137" clip-path="url(#b)"/></svg>